<?xml version="1.0" encoding="UTF-8" standalone="no"?>
<!-- Created with Inkscape (http://www.inkscape.org/) -->

<svg
   version="1.1"
   id="svg252"
   width="500"
   height="500"
   viewBox="0 0 500 500"
   xmlns="http://www.w3.org/2000/svg"
   xmlns:svg="http://www.w3.org/2000/svg">
  <defs
     id="defs256" />
  <path
     style="fill:#000000"
     d="m 199.83711,385.32745 c -0.91459,-0.2423 -2.40939,-2.01367 -3.32178,-3.93638 -0.91238,-1.92271 -3.17306,-7.85976 -5.02372,-13.19345 -1.85066,-5.33369 -4.78253,-13.52262 -6.51527,-18.19762 -1.73274,-4.675 -3.71901,-10.075 -4.41394,-12 -1.26351,-3.5 -1.26351,-3.5 -72.71401,-3.75656 -71.450496,-0.25657 -71.450496,-0.25657 -73.760659,7 C 32.817141,345.23455 29.297947,355.475 26.2673,364 c -3.67554,10.33904 -6.334849,16.26126 -7.986745,17.7863 -1.707092,1.57599 -3.145065,2.08831 -4.628516,1.64902 C 12.468418,383.08482 10.9375,382.08248 10.25,381.2079 9.5625,380.33331 9,378.74171 9,377.671 9,376.60029 12.559699,365.5488 16.910441,353.11213 21.261184,340.67546 26.931514,324.875 29.511175,318 32.090835,311.125 37.57489,295.825 41.697962,284 45.821034,272.175 52.128228,254.625 55.713947,245 59.299666,235.375 65.27839,218.725 69,208 c 3.72161,-10.725 9.68043,-27.375 13.241824,-37 3.561393,-9.625 9.312303,-25.75021 12.7798,-35.8338 4.896383,-14.23884 6.843816,-18.68715 8.718956,-19.91579 1.79489,-1.17606 3.10016,-1.34247 5.08692,-0.64855 2.16722,0.75695 3.35195,2.63169 6.26622,9.91579 1.97654,4.94029 7.53287,20.00735 12.34739,33.48235 4.81452,13.475 12.27624,33.95 16.5816,45.5 4.30537,11.55 12.17684,32.925 17.49216,47.5 5.31532,14.575 13.86616,38.21832 19.00188,52.54071 5.13571,14.32239 10.78278,29.62239 12.54905,34 1.76627,4.37761 3.97098,10.34594 4.89935,13.26296 0.92837,2.91701 2.05683,5.39201 2.50768,5.5 0.45085,0.10798 2.11912,-4.52867 3.70728,-10.30367 1.58816,-5.775 3.58073,-12.975 4.42794,-16 0.8472,-3.025 2.60124,-9.55 3.89784,-14.5 1.29661,-4.95 3.76067,-14.4 5.47568,-21 1.71502,-6.6 4.47496,-17.175 6.13321,-23.5 1.65825,-6.325 4.53654,-16.9 6.39619,-23.5 1.85965,-6.6 4.26887,-15.52415 5.35382,-19.83144 1.08495,-4.30729 2.75396,-8.69479 3.70891,-9.75 1.04793,-1.15794 3.05327,-1.91856 5.05823,-1.91856 2.35213,0 3.74192,0.65688 4.76041,2.25 0.79115,1.2375 4.40201,13.725 8.02413,27.75 3.62212,14.025 7.44511,28.69189 8.49553,32.59308 1.05041,3.90119 2.82584,10.20119 3.9454,14 1.11955,3.79881 4.96011,18.02241 8.53458,31.608 3.57447,13.58559 6.79957,26.30306 7.16689,28.26104 0.36732,1.95799 1.03575,3.78734 1.48539,4.06524 0.44965,0.27789 1.13647,-0.0108 1.52628,-0.64149 0.3898,-0.63072 2.6424,-6.82556 5.00577,-13.76632 2.36337,-6.94075 6.37694,-18.01955 8.91904,-24.61955 2.54211,-6.6 9.28014,-24.825 14.97342,-40.5 5.69328,-15.675 12.83291,-35.025 15.86585,-43 3.03293,-7.975 7.98176,-21.475 10.9974,-30 3.01563,-8.525 8.17262,-22.475 11.45996,-31 3.28734,-8.525 9.00462,-24.05 12.70507,-34.5 3.70045,-10.45 7.56099,-19.87106 8.57898,-20.93569 1.76878,-1.84981 3.34113,-1.92399 35.44105,-1.67219 32.21927,0.25275 33.87076,0.35894 40.4657,2.60202 3.78156,1.28619 9.04493,3.60516 11.69639,5.15327 2.65145,1.54811 7.74583,5.74826 11.32083,9.33367 3.575,3.58541 7.9075,9.21892 9.62777,12.51892 1.72028,3.3 3.97028,8.475 5,11.5 1.76539,5.18615 1.87223,9.8654 1.87223,82 0,71.24313 -0.12637,76.94666 -1.83892,83 -1.0114,3.575 -3.36339,9.80312 -5.22664,13.84028 -1.86325,4.03715 -5.40163,10.16251 -7.86308,13.61192 -2.46144,3.4494 -7.73925,9.29352 -11.72847,12.98692 -3.98922,3.6934 -10.33058,8.54357 -14.09192,10.77814 -3.76134,2.23457 -9.83327,5.14979 -13.49318,6.47826 -3.6599,1.32847 -9.74456,3.06545 -13.52146,3.85994 C 419.14661,384.7313 405.53224,385 351.54541,385 c -61.67605,0 -66.47521,-0.12264 -68.48382,-1.75 -1.36797,-1.10832 -2.88362,-4.50004 -4.13353,-9.25 -1.08545,-4.125 -3.56798,-13.575 -5.51672,-21 -1.94875,-7.425 -5.52875,-21.18419 -7.95556,-30.57598 -2.42681,-9.39178 -7.06983,-26.49178 -10.31783,-38 C 251.88996,272.91581 248.66506,261.025 247.97152,258 c -0.69354,-3.025 -1.56196,-6.85 -1.92982,-8.5 -0.36786,-1.65 -1.31383,-3 -2.10215,-3 -0.97256,0 -1.95574,2.41097 -3.05847,7.5 -0.89383,4.125 -4.64241,18.975 -8.33019,33 -3.68777,14.025 -10.00715,37.65 -14.04307,52.5 -4.03591,14.85 -8.13132,30.375 -9.10089,34.5 -1.17324,4.99147 -2.55817,8.25256 -4.14066,9.75 -1.30779,1.2375 -2.6902,2.1978 -3.07203,2.134 -0.38183,-0.0638 -1.44254,-0.31425 -2.35713,-0.55655 z m 225.45686,-14.15793 c 2.63668,-0.61905 7.36545,-2.16421 10.50836,-3.43369 3.14292,-1.26948 8.41064,-4.07788 11.70604,-6.24088 3.29539,-2.163 8.70563,-6.64673 12.02274,-9.96384 3.31711,-3.31711 7.74793,-8.64763 9.84626,-11.8456 2.09833,-3.19797 4.85605,-8.37615 6.12825,-11.50707 1.27221,-3.13091 3.02889,-9.15792 3.90374,-13.39335 C 480.77299,308.18332 481,297.3219 481,238.67865 c 0,-41.60453 -0.39387,-70.51608 -1.00528,-73.79216 -0.5529,-2.96257 -2.33076,-8.08649 -3.95079,-11.38649 -1.63028,-3.32089 -5.52011,-8.58715 -8.71148,-11.79405 -3.28687,-3.30288 -8.35999,-7.0627 -11.79921,-8.74472 -3.31828,-1.62287 -8.45716,-3.40305 -11.41973,-3.95595 C 441.15094,128.45238 426.69679,128 411.99318,128 c -26.73384,0 -26.73384,0 -29.46297,7.75 -1.50102,4.2625 -6.97309,19.225 -12.16015,33.25 -5.18707,14.025 -10.51488,28.425 -11.83958,32 -1.32471,3.575 -5.36378,14.48974 -8.97572,24.25498 -3.61194,9.76523 -7.67175,20.56523 -9.02179,24 -1.35005,3.43476 -5.36192,14.34502 -8.91527,24.24502 -3.55335,9.9 -10.57332,29.025 -15.59992,42.5 -5.0266,13.475 -11.58694,31.08881 -14.57853,39.1418 C 298.44766,363.19479 296,370.53497 296,371.45331 c 0,1.54617 4.60596,1.63908 62.25,1.25574 41.19339,-0.27395 63.8716,-0.79471 67.04397,-1.53953 z M 174,321.11906 c 0,-0.48452 -1.17324,-3.97202 -2.6072,-7.75 -1.43396,-3.77798 -4.76294,-12.94406 -7.39773,-20.36906 -2.63479,-7.425 -7.37245,-20.25 -10.52813,-28.5 -3.15568,-8.25 -8.32525,-22.425 -11.48794,-31.5 -3.1627,-9.075 -7.41625,-20.775 -9.45234,-26 -2.0361,-5.225 -7.05587,-18.95 -11.15506,-30.5 -4.09919,-11.55 -8.33474,-23.19751 -9.41233,-25.88335 C 110.88167,147.9308 110,144.7234 110,143.48909 c 0,-1.23431 -0.65529,-2.78804 -1.4562,-3.45274 -0.8009,-0.66469 -1.9259,-0.91823 -2.5,-0.56342 -0.57409,0.35481 -1.0438,1.46219 -1.0438,2.46084 0,0.99866 -3.6426,11.8846 -8.094669,24.19099 C 92.453263,178.43114 85.744272,197.275 81.996463,208 c -3.747809,10.725 -9.14024,25.8 -11.983181,33.5 -2.84294,7.7 -8.565477,23.675 -12.716749,35.5 -4.151272,11.825 -9.51624,26.60695 -11.92215,32.84878 C 42.968472,316.09061 41,321.37811 41,321.59878 41,321.81945 70.925,322 107.5,322 c 37.67501,0 66.5,-0.38185 66.5,-0.88094 z"
     id="path379" />
</svg>
